<?xml version="1.0" encoding="utf-8"?>
<!-- Generator: Adobe Illustrator 24.0.1, SVG Export Plug-In . SVG Version: 6.00 Build 0)  -->
<svg version="1.1" id="Layer_1" xmlns="http://www.w3.org/2000/svg" xmlns:xlink="http://www.w3.org/1999/xlink" x="0px" y="0px"
	 viewBox="0 0 40 40" style="enable-background:new 0 0 40 40;" xml:space="preserve">
<style type="text/css">
	.st0{fill:#00B1E1;}
	.st1{fill:none;stroke:#FFFFFF;stroke-width:0.72342;stroke-linecap:round;stroke-linejoin:round;stroke-miterlimit:10;}
</style>
<g>
	<path class="st0" d="M40,20c0,11-9,20-20,20S0,31,0,20S9,0,20,0S40,9,40,20z"/>
	<g>
		<line class="st1" x1="26.14908" y1="22.84039" x2="20" y2="20.60231"/>
		<polygon class="st1" points="26.14908,29.57593 20,27.33785 20,20.60231 26.14908,18.36423 32.29815,20.60231 32.29815,27.33785 
					"/>
		<line class="st1" x1="26.14908" y1="22.84039" x2="26.14908" y2="29.57593"/>
		<line class="st1" x1="26.14908" y1="22.84039" x2="32.29815" y2="20.60231"/>
		<line class="st1" x1="32.29815" y1="20.60231" x2="32.29815" y2="27.33785"/>
		<polyline class="st1" points="29.43173,21.64333 29.43173,25.01152 32.29795,23.97245 		"/>
		<g>
			<line class="st1" x1="13.85092" y1="22.84039" x2="7.70185" y2="20.60231"/>
			<polygon class="st1" points="13.85092,29.57593 7.70185,27.33785 7.70185,20.60231 13.85092,18.36423 20,20.60231 20,27.33785 
							"/>
			<line class="st1" x1="13.85092" y1="22.84039" x2="13.85092" y2="29.57593"/>
			<line class="st1" x1="13.85092" y1="22.84039" x2="20" y2="20.60231"/>
			<polyline class="st1" points="17.13378,21.64333 17.13378,25.01152 20,23.97245 			"/>
		</g>
		<g>
			<line class="st1" x1="20" y1="13.86677" x2="13.85092" y2="11.62869"/>
			<polygon class="st1" points="20,20.60231 13.85092,18.36423 13.85092,11.62869 20,9.39061 26.14908,11.62869 26.14908,18.36423 
							"/>
			<line class="st1" x1="20" y1="13.86677" x2="20" y2="20.60231"/>
			<line class="st1" x1="20" y1="13.86677" x2="26.14908" y2="11.62869"/>
			<polyline class="st1" points="23.28285,12.66971 23.28285,16.0379 26.14908,14.99883 			"/>
		</g>
	</g>
</g>
</svg>
